<svg width="375" height="106" viewBox="0 0 375 106" fill="none" xmlns="http://www.w3.org/2000/svg">
<path d="M375 86H122H0" stroke="url(#paint0_linear_462_943)" stroke-width="12"/>
<circle cx="188" cy="86" r="20" fill="#151B1E"/>
<circle cx="188" cy="86" r="16" stroke="#FAF9F6" stroke-opacity="0.96" stroke-width="8"/>
<rect x="165" width="46" height="46" rx="12" fill="#7AC7FF"/>
<path d="M190.039 55C189.269 56.3333 187.345 56.3333 186.575 55L181.379 46C180.609 44.6667 181.571 43 183.111 43L193.503 43C195.043 43 196.005 44.6667 195.235 46L190.039 55Z" fill="#7AC7FF"/>
<path d="M179.833 31.1666C179.503 31.1666 179.226 31.0548 179.002 30.8312C178.778 30.6076 178.667 30.3305 178.667 30C178.667 29.6694 178.778 29.3923 179.002 29.1687C179.226 28.9451 179.503 28.8333 179.833 28.8333H181V20.6666C181 19.0528 181.486 17.6187 182.458 16.3646C183.43 15.1104 184.694 14.2889 186.25 13.9V13.0833C186.25 12.5972 186.42 12.184 186.76 11.8437C187.101 11.5035 187.514 11.3333 188 11.3333C188.486 11.3333 188.899 11.5035 189.239 11.8437C189.58 12.184 189.75 12.5972 189.75 13.0833V13.9C191.305 14.2889 192.569 15.1104 193.542 16.3646C194.514 17.6187 195 19.0528 195 20.6666V28.8333H196.167C196.497 28.8333 196.774 28.9451 196.998 29.1687C197.221 29.3923 197.333 29.6694 197.333 30C197.333 30.3305 197.221 30.6076 196.998 30.8312C196.774 31.0548 196.497 31.1666 196.167 31.1666H179.833ZM188 34.6666C187.358 34.6666 186.809 34.4382 186.352 33.9812C185.895 33.5243 185.667 32.975 185.667 32.3333H190.333C190.333 32.975 190.105 33.5243 189.648 33.9812C189.191 34.4382 188.642 34.6666 188 34.6666Z" fill="#151B1E"/>
<defs>
<linearGradient id="paint0_linear_462_943" x1="0" y1="86.5" x2="375" y2="86.5" gradientUnits="userSpaceOnUse">
<stop stop-color="#919191" stop-opacity="0"/>
<stop offset="0.0001" stop-color="#7AC7FF" stop-opacity="0"/>
<stop offset="0.5" stop-color="#7AC7FF"/>
<stop offset="1" stop-color="#7AC7FF" stop-opacity="0"/>
</linearGradient>
</defs>
</svg>
