<svg width="375" height="96" viewBox="0 0 375 96" fill="none" xmlns="http://www.w3.org/2000/svg">
<path d="M375 76H122H0" stroke="url(#paint0_linear_487_286)" stroke-width="12"/>
<circle cx="188" cy="76" r="16" fill="#FAF9F6" fill-opacity="0.96" stroke="#0B1215" stroke-width="8"/>
<path d="M199 13.6V9C199 8.73333 198.9 8.5 198.7 8.3C198.5 8.1 198.267 8 198 8C197.733 8 197.5 8.1 197.3 8.3C197.1 8.5 197 8.73333 197 9V13.6C197 13.8667 197.05 14.125 197.15 14.375C197.25 14.625 197.383 14.8333 197.55 15L200.55 18.05C200.75 18.25 201 18.35 201.3 18.35C201.6 18.35 201.85 18.25 202.05 18.05C202.25 17.85 202.35 17.6 202.35 17.3C202.35 17 202.25 16.75 202.05 16.55L199 13.6ZM198 24C195.233 24 192.875 23.025 190.925 21.075C188.975 19.125 188 16.7667 188 14C188 11.2667 188.967 8.91667 190.9 6.95C192.833 4.98333 195.2 4 198 4C200.767 4 203.125 4.975 205.075 6.925C207.025 8.875 208 11.2333 208 14C208 16.7667 207.025 19.125 205.075 21.075C203.125 23.025 200.767 24 198 24ZM177 34C177.833 34 178.542 33.7083 179.125 33.125C179.708 32.5417 180 31.8333 180 31C180 30.1667 179.708 29.4583 179.125 28.875C178.542 28.2917 177.833 28 177 28C176.167 28 175.458 28.2917 174.875 28.875C174.292 29.4583 174 30.1667 174 31C174 31.8333 174.292 32.5417 174.875 33.125C175.458 33.7083 176.167 34 177 34ZM191 34C191.833 34 192.542 33.7083 193.125 33.125C193.708 32.5417 194 31.8333 194 31C194 30.1667 193.708 29.4583 193.125 28.875C192.542 28.2917 191.833 28 191 28C190.167 28 189.458 28.2917 188.875 28.875C188.292 29.4583 188 30.1667 188 31C188 31.8333 188.292 32.5417 188.875 33.125C189.458 33.7083 190.167 34 191 34ZM173 44C172.167 44 171.458 43.7083 170.875 43.125C170.292 42.5417 170 41.8333 170 41V37.9C169.333 37.2 168.833 36.425 168.5 35.575C168.167 34.725 168 33.8667 168 33V14C168 11.6 169.108 9.76667 171.325 8.5C173.542 7.23333 177.133 6.45 182.1 6.15C183.067 6.08333 183.817 6.45833 184.35 7.275C184.883 8.09167 184.967 8.98333 184.6 9.95C184.4 10.6167 184.25 11.3083 184.15 12.025C184.05 12.7417 184 13.45 184 14.15C184 14.65 183.842 15.0833 183.525 15.45C183.208 15.8167 182.8 16 182.3 16H172V22H185C185.467 22 185.917 22.1083 186.35 22.325C186.783 22.5417 187.15 22.8333 187.45 23.2C188.017 23.8667 188.633 24.4583 189.3 24.975C189.967 25.4917 190.683 25.95 191.45 26.35C192.517 26.9167 193.625 27.3417 194.775 27.625C195.925 27.9083 197.1 28.0333 198.3 28C198.767 28 199.167 28.1417 199.5 28.425C199.833 28.7083 200 29.0833 200 29.55V33C200 33.8667 199.833 34.725 199.5 35.575C199.167 36.425 198.667 37.2 198 37.9V41C198 41.8333 197.708 42.5417 197.125 43.125C196.542 43.7083 195.833 44 195 44C194.167 44 193.458 43.7083 192.875 43.125C192.292 42.5417 192 41.8333 192 41V40H176V41C176 41.8333 175.708 42.5417 175.125 43.125C174.542 43.7083 173.833 44 173 44Z" fill="#4B71F8"/>
<defs>
<linearGradient id="paint0_linear_487_286" x1="0" y1="76.5" x2="375" y2="76.5" gradientUnits="userSpaceOnUse">
<stop stop-color="#919191" stop-opacity="0"/>
<stop offset="0.0001" stop-color="#4B71F8" stop-opacity="0"/>
<stop offset="0.5" stop-color="#4B71F8"/>
<stop offset="1" stop-color="#4B71F8" stop-opacity="0"/>
</linearGradient>
</defs>
</svg>
