<svg width="375" height="373" viewBox="0 0 375 373" fill="none" xmlns="http://www.w3.org/2000/svg">
<path d="M6 82H151C168.673 82 183 96.3269 183 114V189.5C183 207.173 197.327 221.5 215 221.5H369" stroke="#4B71F8" stroke-width="12" stroke-linecap="square"/>
<circle cx="90" cy="82" r="16" fill="white" stroke="black" stroke-width="8"/>
<circle cx="279" cy="221" r="16" fill="white" stroke="black" stroke-width="8"/>
<path d="M75 232C75 229.791 76.7909 228 79 228C81.2091 228 83 229.791 83 232V369C83 371.209 81.2091 373 79 373C76.7909 373 75 371.209 75 369V232Z" fill="#FFBF19"/>
<path d="M53 365C53 363.895 53.8954 363 55 363H114C115.105 363 116 363.895 116 365V371C116 372.105 115.105 373 114 373H55C53.8954 373 53 372.105 53 371V365Z" fill="#EBA900"/>
<path d="M47 365C47 363.895 47.8954 363 49 363H108C109.105 363 110 363.895 110 365V371C110 372.105 109.105 373 108 373H49C47.8954 373 47 372.105 47 371V365Z" fill="#FFBF19"/>
<path d="M35 168C35 159.163 42.1634 152 51 152H107C115.837 152 123 159.163 123 168V224C123 232.837 115.837 240 107 240H51C42.1634 240 35 232.837 35 224V168Z" fill="#4B71F8"/>
<path d="M108 196.5C108 212.792 94.7924 226 78.5 226C62.2076 226 49 212.792 49 196.5C49 180.208 62.2076 167 78.5 167C94.7924 167 108 180.208 108 196.5Z" fill="white"/>
<path d="M73.6667 205.333V206C73.6667 206.556 73.4722 207.028 73.0833 207.417C72.6944 207.806 72.2222 208 71.6667 208C71.1111 208 70.6389 207.806 70.25 207.417C69.8611 207.028 69.6667 206.556 69.6667 206V203.933C69.2667 203.489 68.9444 202.994 68.7 202.45C68.4556 201.906 68.3333 201.311 68.3333 200.667V188C68.3333 186.156 69.1889 184.806 70.9 183.95C72.6111 183.094 75.3111 182.667 79 182.667C82.8222 182.667 85.5556 183.078 87.2 183.9C88.8444 184.722 89.6667 186.089 89.6667 188V200.667C89.6667 201.311 89.5444 201.906 89.3 202.45C89.0556 202.994 88.7333 203.489 88.3333 203.933V206C88.3333 206.556 88.1389 207.028 87.75 207.417C87.3611 207.806 86.8889 208 86.3333 208C85.7778 208 85.3056 207.806 84.9167 207.417C84.5278 207.028 84.3333 206.556 84.3333 206V205.333H73.6667ZM71 193.333H87V189.333H71V193.333ZM74.3333 201.333C74.8889 201.333 75.3611 201.139 75.75 200.75C76.1389 200.361 76.3333 199.889 76.3333 199.333C76.3333 198.778 76.1389 198.306 75.75 197.917C75.3611 197.528 74.8889 197.333 74.3333 197.333C73.7778 197.333 73.3056 197.528 72.9167 197.917C72.5278 198.306 72.3333 198.778 72.3333 199.333C72.3333 199.889 72.5278 200.361 72.9167 200.75C73.3056 201.139 73.7778 201.333 74.3333 201.333ZM83.6667 201.333C84.2222 201.333 84.6944 201.139 85.0833 200.75C85.4722 200.361 85.6667 199.889 85.6667 199.333C85.6667 198.778 85.4722 198.306 85.0833 197.917C84.6944 197.528 84.2222 197.333 83.6667 197.333C83.1111 197.333 82.6389 197.528 82.25 197.917C81.8611 198.306 81.6667 198.778 81.6667 199.333C81.6667 199.889 81.8611 200.361 82.25 200.75C82.6389 201.139 83.1111 201.333 83.6667 201.333Z" fill="#4B71F8"/>
<path d="M174 265C174 260.582 177.582 257 182 257H375V367H182C177.582 367 174 363.418 174 359V265Z" fill="#8CD994" fill-opacity="0.5"/>
<rect x="216" width="125" height="185" rx="8" fill="#8CD994" fill-opacity="0.5"/>
</svg>
