<svg width="375" height="383" viewBox="0 0 375 383" fill="none" xmlns="http://www.w3.org/2000/svg">
<rect width="375" height="383" fill="white" fill-opacity="0.01"/>
<rect y="306" width="375" height="77" fill="#282828"/>
<line x1="6.99382e-07" y1="344" x2="375" y2="344" stroke="white" stroke-width="16" stroke-dasharray="32 32"/>
<rect x="147" y="132" width="81" height="81" rx="16" fill="#4B71F8"/>
<path d="M191.83 225.5C189.906 228.833 185.094 228.833 183.17 225.5L176.675 214.25C174.75 210.917 177.156 206.75 181.005 206.75L193.995 206.75C197.844 206.75 200.25 210.917 198.325 214.25L191.83 225.5Z" fill="#4B71F8"/>
<path d="M174 186C173.433 186 172.958 185.808 172.575 185.425C172.192 185.042 172 184.567 172 184C172 183.433 172.192 182.958 172.575 182.575C172.958 182.192 173.433 182 174 182H176V168C176 165.233 176.833 162.775 178.5 160.625C180.167 158.475 182.333 157.067 185 156.4V155C185 154.167 185.292 153.458 185.875 152.875C186.458 152.292 187.167 152 188 152C188.833 152 189.542 152.292 190.125 152.875C190.708 153.458 191 154.167 191 155V156.4C193.667 157.067 195.833 158.475 197.5 160.625C199.167 162.775 200 165.233 200 168V182H202C202.567 182 203.042 182.192 203.425 182.575C203.808 182.958 204 183.433 204 184C204 184.567 203.808 185.042 203.425 185.425C203.042 185.808 202.567 186 202 186H174ZM188 192C186.9 192 185.958 191.608 185.175 190.825C184.392 190.042 184 189.1 184 188H192C192 189.1 191.608 190.042 190.825 190.825C190.042 191.608 189.1 192 188 192Z" fill="white"/>
<line x1="188" y1="68" x2="188" y2="111" stroke="#4B71F8" stroke-width="10"/>
<line x1="127.33" y1="94.5" x2="140.83" y2="117.883" stroke="#4B71F8" stroke-width="10"/>
<line x1="233.17" y1="117.739" x2="246.67" y2="94.3564" stroke="#4B71F8" stroke-width="10"/>
<line x1="233.67" y1="117.883" x2="247.17" y2="94.5" stroke="#4B71F8" stroke-width="10"/>
<path d="M2.78467 276H375" stroke="#4B71F8" stroke-width="12" stroke-linecap="square"/>
<path d="M0 260H372.215" stroke="#F84B4B" stroke-width="12" stroke-linecap="square"/>
<rect x="172" y="245" width="32" height="49" rx="16" fill="white" stroke="black" stroke-width="8"/>
</svg>
