<svg width="56" height="104" viewBox="0 0 56 104" fill="none" xmlns="http://www.w3.org/2000/svg">
<path d="M28 0V104" stroke="#4B71F8" stroke-width="8"/>
<g filter="url(#filter0_d_331_3322)">
<path d="M40 52C40 58.6274 34.6274 64 28 64C21.3726 64 16 58.6274 16 52C16 45.3726 21.3726 40 28 40C34.6274 40 40 45.3726 40 52Z" fill="#FAF9F6"/>
<path d="M38 52C38 57.5228 33.5228 62 28 62C22.4772 62 18 57.5228 18 52C18 46.4772 22.4772 42 28 42C33.5228 42 38 46.4772 38 52Z" stroke="#6D7173" stroke-width="4"/>
</g>
<defs>
<filter id="filter0_d_331_3322" x="0" y="24" width="56" height="56" filterUnits="userSpaceOnUse" color-interpolation-filters="sRGB">
<feFlood flood-opacity="0" result="BackgroundImageFix"/>
<feColorMatrix in="SourceAlpha" type="matrix" values="0 0 0 0 0 0 0 0 0 0 0 0 0 0 0 0 0 0 127 0" result="hardAlpha"/>
<feOffset/>
<feGaussianBlur stdDeviation="8"/>
<feComposite in2="hardAlpha" operator="out"/>
<feColorMatrix type="matrix" values="0 0 0 0 0.294118 0 0 0 0 0.443137 0 0 0 0 0.972549 0 0 0 0.72 0"/>
<feBlend mode="normal" in2="BackgroundImageFix" result="effect1_dropShadow_331_3322"/>
<feBlend mode="normal" in="SourceGraphic" in2="effect1_dropShadow_331_3322" result="shape"/>
</filter>
</defs>
</svg>
